<svg xmlns="http://www.w3.org/2000/svg" width="100" height="24" viewBox="0 0 100 24" fill="none">
    <path d="M72.7713 23.9924V21.0314C74.1031 21.0274 75.3791 20.5016 76.3208 19.5689C77.2625 18.6362 77.7934 17.3723 77.7974 16.0533V13.2293C77.7913 11.9116 77.2596 10.6497 76.3181 9.71859C75.3766 8.78753 74.1017 8.2628 72.7713 8.2588V5.32826C74.889 5.32232 76.9238 6.1427 78.4353 7.6118C79.1878 8.34274 79.7844 9.21595 80.1897 10.1796C80.595 11.1433 80.8007 12.1778 80.7946 13.2217V16.0457C80.7949 17.088 80.5872 18.1202 80.1837 19.0829C79.7801 20.0456 79.1886 20.9199 78.443 21.6556C77.7053 22.4029 76.8225 22.9946 75.8477 23.3949C74.873 23.7952 73.8265 23.9959 72.7713 23.9848V23.9924ZM96.9951 23.4596V13.2293C96.9443 11.9437 96.3929 10.7275 95.4566 9.83572C94.5203 8.94393 93.2718 8.44581 91.9728 8.44581C90.6738 8.44581 89.4253 8.94393 88.489 9.83572C87.5526 10.7275 87.0013 11.9437 86.9505 13.2293V23.4367C85.9607 23.2464 84.9431 23.2464 83.9533 23.4367V13.2293C83.952 12.1856 84.1592 11.152 84.5628 10.188C84.9664 9.2239 85.5584 8.34838 86.305 7.6118C87.4261 6.50201 88.854 5.746 90.4085 5.43916C91.963 5.13233 93.5745 5.28841 95.0395 5.88772C96.5045 6.48702 97.7575 7.5027 98.6404 8.80659C99.5232 10.1105 99.9963 11.6442 100 13.2141V23.4215C99.0048 23.2475 97.9855 23.2604 96.9951 23.4596ZM52.1211 23.4596V13.2293C52.1151 11.9129 51.5844 10.6521 50.6446 9.72126C49.7047 8.79041 48.4318 8.26481 47.1027 8.2588V5.32826C48.1539 5.32626 49.1953 5.52949 50.1672 5.92633C51.1391 6.32317 52.0225 6.90584 52.767 7.64103C53.5114 8.37622 54.1022 9.24952 54.5057 10.211C54.9092 11.1725 55.1173 12.2033 55.1184 13.2445V23.4215C54.1257 23.2476 53.1089 23.2605 52.1211 23.4596ZM72.7713 5.32826V8.2588C72.1127 8.25945 71.4607 8.38889 70.8527 8.63968C70.2448 8.89047 69.6928 9.25769 69.2284 9.72027C68.7572 10.1771 68.3837 10.7232 68.1302 11.3261C67.8767 11.929 67.7484 12.5762 67.7528 13.2293V16.0533C67.7569 17.371 68.2867 18.6337 69.2267 19.5662C70.1668 20.4987 71.4409 21.0254 72.7713 21.0314V23.9924C71.7177 24.0132 70.6712 23.8176 69.6977 23.4181C68.7243 23.0185 67.8449 22.4236 67.115 21.6708C65.6115 20.1796 64.7636 18.1606 64.7556 16.0533V13.2293C64.7544 12.1856 64.9615 11.152 65.3651 10.188C65.7687 9.2239 66.3608 8.34838 67.1073 7.6118C68.6238 6.15031 70.6554 5.33125 72.7713 5.32826ZM47.1027 23.2769C47.6173 23.2645 48.1319 23.3002 48.6397 23.3834V16.5328C48.1329 16.6264 47.6182 16.6723 47.1027 16.6698V23.2769ZM61.597 0V23.4063C60.5996 23.2411 59.5796 23.267 58.5921 23.4824V0C59.5845 0.190216 60.6046 0.190216 61.597 0V0ZM47.1027 8.2588C45.7722 8.2628 44.4973 8.78753 43.5558 9.71859C42.6144 10.6497 42.0826 11.9116 42.0765 13.2293V16.5937C41.0863 16.4073 40.0695 16.4073 39.0793 16.5937V13.2445C39.113 11.1771 39.9178 9.1951 41.3388 7.6803C42.8702 6.1718 44.9428 5.32602 47.1027 5.32826V8.27402V8.2588ZM47.1027 16.6318C46.5871 16.6337 46.0725 16.5878 45.5656 16.4948V23.4215C46.0711 23.313 46.5857 23.2518 47.1027 23.2388V16.6698V16.6318ZM35.6056 0V3.47098C34.6323 3.79036 33.5834 3.8063 32.6007 3.51665V0C33.5931 0.190216 34.6132 0.190216 35.6056 0V0ZM35.6056 6.02093V23.4443C34.6132 23.2541 33.5931 23.2541 32.6007 23.4443V6.08944C33.5935 6.27596 34.6128 6.27596 35.6056 6.08944V6.02093ZM2.99723 6.08944V16.0609C2.97078 16.7305 3.0811 17.3985 3.32157 18.0249C3.56205 18.6512 3.92773 19.2231 4.3967 19.7061C4.86567 20.1891 5.42828 20.5734 6.0508 20.8359C6.67332 21.0983 7.34294 21.2336 8.01952 21.2336C8.6961 21.2336 9.36572 21.0983 9.98824 20.8359C10.6108 20.5734 11.1734 20.1891 11.6423 19.7061C12.1113 19.2231 12.477 18.6512 12.7175 18.0249C12.9579 17.3985 13.0683 16.7305 13.0418 16.0609V6.03616C14.035 6.21878 15.0536 6.21878 16.0467 6.03616V16.0533C16.0975 17.3389 16.6489 18.5551 17.5852 19.4469C18.5215 20.3387 19.77 20.8368 21.069 20.8368C22.368 20.8368 23.6166 20.3387 24.5529 19.4469C25.4892 18.5551 26.0405 17.3389 26.0913 16.0533V6.03616C27.0811 6.22652 28.0987 6.22652 29.0885 6.03616V16.0533C29.0888 17.7357 28.5494 19.3748 27.5481 20.7339C26.5469 22.0931 25.1356 23.102 23.5179 23.6152C21.9002 24.1284 20.1596 24.1193 18.5475 23.5893C16.9353 23.0592 15.5348 22.0355 14.5481 20.666C13.5598 22.0339 12.1587 23.0559 10.5466 23.5849C8.93455 24.1139 7.19456 24.1226 5.57715 23.6098C3.95974 23.0969 2.54833 22.089 1.54611 20.7311C0.543889 19.3732 0.00254281 17.7353 0 16.0533L0 5.97526C0.982973 6.19941 1.99978 6.23814 2.99723 6.08944Z" fill="black"/>
</svg>